<svg width="24" height="24" viewBox="0 0 24 24" fill="none" xmlns="http://www.w3.org/2000/svg">
<g clip-path="url(#clip0_4433_45429)">
<path d="M0.858814 12C0.858814 18.1541 5.84764 23.1429 12.0017 23.1429C18.1557 23.1429 23.1445 18.1541 23.1445 12C23.1445 5.84601 18.1557 0.857178 12.0017 0.857178C5.84764 0.857178 0.858814 5.84601 0.858814 12Z" stroke="#1A183E" stroke-width="2" stroke-linecap="round" stroke-linejoin="round"/>
<path d="M11.1451 12.0001C11.1451 12.4735 11.5288 12.8572 12.0022 12.8572C12.4756 12.8572 12.8594 12.4735 12.8594 12.0001C12.8594 11.5267 12.4756 11.1429 12.0022 11.1429C11.5288 11.1429 11.1451 11.5267 11.1451 12.0001Z" fill="#1A183E" stroke="#1A183E" stroke-linecap="round" stroke-linejoin="round"/>
<path d="M11.1451 6.85714C11.1451 7.33053 11.5288 7.71429 12.0022 7.71429C12.4756 7.71429 12.8594 7.33053 12.8594 6.85714C12.8594 6.38376 12.4756 6 12.0022 6C11.5288 6 11.1451 6.38376 11.1451 6.85714Z" fill="#1A183E" stroke="#1A183E" stroke-linecap="round" stroke-linejoin="round"/>
<path d="M11.1451 17.1429C11.1451 17.6163 11.5288 18.0001 12.0022 18.0001C12.4756 18.0001 12.8594 17.6163 12.8594 17.1429C12.8594 16.6695 12.4756 16.2858 12.0022 16.2858C11.5288 16.2858 11.1451 16.6695 11.1451 17.1429Z" fill="#1A183E" stroke="#1A183E" stroke-linecap="round" stroke-linejoin="round"/>
</g>
<defs>
<clipPath id="clip0_4433_45429">
<rect width="24" height="24" fill="white" transform="matrix(0 1 -1 0 24 0)"/>
</clipPath>
</defs>
</svg>
