<svg width="50" height="50" viewBox="0 0 50 50" fill="none" xmlns="http://www.w3.org/2000/svg">
<circle cx="25" cy="25" r="25" fill="#D8E4FF"/>
<path d="M35.1667 31.5417C35.8076 31.5417 36.4223 31.2871 36.8755 30.8338C37.3287 30.3806 37.5833 29.7659 37.5833 29.125V15.8333C37.5833 15.1924 37.3287 14.5777 36.8755 14.1245C36.4223 13.6713 35.8076 13.4167 35.1667 13.4167H22.4308C22.8537 14.1537 23.0833 14.9875 23.0833 15.8333H35.1667V29.125H24.2917V31.5417M29.125 19.4583V21.875H21.875V37.5833H19.4583V30.3333H17.0417V37.5833H14.625V27.9167H12.8125V21.875C12.8125 21.2341 13.0671 20.6194 13.5203 20.1662C13.9735 19.7129 14.5882 19.4583 15.2292 19.4583H29.125ZM20.6667 15.8333C20.6667 16.4743 20.4121 17.089 19.9588 17.5422C19.5056 17.9954 18.8909 18.25 18.25 18.25C17.6091 18.25 16.9944 17.9954 16.5412 17.5422C16.0879 17.089 15.8333 16.4743 15.8333 15.8333C15.8333 15.1924 16.0879 14.5777 16.5412 14.1245C16.9944 13.6713 17.6091 13.4167 18.25 13.4167C18.8909 13.4167 19.5056 13.6713 19.9588 14.1245C20.4121 14.5777 20.6667 15.1924 20.6667 15.8333Z" fill="#1A183E"/>
</svg>
