<svg xmlns="http://www.w3.org/2000/svg" width="12" height="13" viewBox="0 0 12 13" fill="none">
<path d="M6.00159 5.97502C4.41259 5.97502 4.09059 3.56702 4.09059 3.56702C3.90159 2.31402 4.47559 0.900024 5.98059 0.900024C7.49259 0.900024 8.06659 2.31402 7.87759 3.56702C7.87759 3.56702 7.59059 5.97502 6.00159 5.97502ZM6.00159 7.77402L7.90559 6.50002C9.57859 6.50002 11.0696 8.13102 11.0696 9.67103V11.414C11.0696 11.414 8.51459 12.205 6.00159 12.205C3.44659 12.205 0.933594 11.414 0.933594 11.414V9.67103C0.933594 8.09602 2.29159 6.53503 4.06259 6.53503L6.00159 7.77402Z" fill="#7A7A7A"/>
</svg>