<svg width="50" height="50" viewBox="0 0 50 50" fill="none" xmlns="http://www.w3.org/2000/svg">
<circle cx="25" cy="25" r="25" fill="#D8E4FF"/>
<path d="M32.75 37.0547H18.25C17.7694 37.0542 17.3087 36.8711 16.9689 36.5454C16.6291 36.2198 16.438 35.7782 16.4375 35.3177V14.474C16.438 14.0134 16.6291 13.5719 16.9689 13.2462C17.3087 12.9206 17.7694 12.7374 18.25 12.737H32.75C33.2306 12.7374 33.6913 12.9206 34.0311 13.2462C34.3709 13.5719 34.562 14.0134 34.5625 14.474V28.9065L30.0312 26.7353L25.5 28.9065V14.474H18.25V35.3177H32.75V31.8438H34.5625V35.3177C34.5618 35.7782 34.3706 36.2196 34.0308 36.5452C33.6911 36.8708 33.2305 37.054 32.75 37.0547ZM30.0312 24.7934L32.75 26.0961V14.474H27.3125V26.0961L30.0312 24.7934Z" fill="#1A183E"/>
</svg>
