<svg width="50" height="50" viewBox="0 0 50 50" fill="none" xmlns="http://www.w3.org/2000/svg">
<circle cx="25" cy="25" r="25" fill="#D8E4FF"/>
<path d="M28.3799 22.5488C29.5637 22.5488 30.5245 23.5096 30.5245 24.6935V30.5133C30.5245 31.9762 29.9434 33.3792 28.9089 34.4137C27.8745 35.4481 26.4715 36.0292 25.0086 36.0292C23.5457 36.0292 22.1427 35.4481 21.1082 34.4137C20.0738 33.3792 19.4926 31.9762 19.4926 30.5133V24.6935C19.4926 23.5096 20.4522 22.5488 21.6373 22.5488H28.3799ZM28.3799 24.3871H21.6373C21.556 24.3871 21.4781 24.4194 21.4206 24.4768C21.3632 24.5343 21.3309 24.6122 21.3309 24.6935V30.5133C21.3309 31.4887 21.7184 32.4241 22.4081 33.1138C23.0978 33.8035 24.0332 34.191 25.0086 34.191C25.984 34.191 26.9194 33.8035 27.6091 33.1138C28.2988 32.4241 28.6863 31.4887 28.6863 30.5133V24.6935C28.6863 24.6122 28.654 24.5343 28.5965 24.4768C28.5391 24.4194 28.4612 24.3871 28.3799 24.3871ZM14.8946 22.5488H19.038C18.6056 23.071 18.3416 23.7119 18.2806 24.3871H14.8946C14.8134 24.3871 14.7354 24.4194 14.678 24.4768C14.6205 24.5343 14.5882 24.6122 14.5882 24.6935V28.6751C14.5882 29.1382 14.693 29.5953 14.8949 30.012C15.0969 30.4288 15.3906 30.7943 15.7541 31.0813C16.1176 31.3682 16.5413 31.5691 16.9936 31.6687C17.4458 31.7684 17.9148 31.7643 18.3652 31.6567C18.4694 32.2743 18.6593 32.8638 18.9203 33.4116C18.194 33.6059 17.4326 33.6306 16.6952 33.4837C15.9578 33.3368 15.264 33.0222 14.6676 32.5644C14.0711 32.1065 13.588 31.5176 13.2555 30.8432C12.923 30.1688 12.75 29.427 12.75 28.6751V24.6935C12.75 23.5096 13.7108 22.5488 14.8946 22.5488ZM30.9792 22.5488H35.1152C36.299 22.5488 37.2598 23.5096 37.2598 24.6935V28.6763C37.26 29.4277 37.0874 30.1691 36.7554 30.8432C36.4234 31.5173 35.9408 32.1061 35.3451 32.564C34.7493 33.0219 34.0562 33.3367 33.3194 33.4841C32.5825 33.6315 31.8217 33.6075 31.0956 33.414C31.3578 32.865 31.5478 32.2756 31.6532 31.6579C32.103 31.7642 32.5711 31.7674 33.0224 31.6671C33.4736 31.5668 33.8963 31.3658 34.2588 31.0789C34.6213 30.7921 34.9143 30.427 35.1156 30.0109C35.317 29.5948 35.4216 29.1385 35.4216 28.6763V24.6935C35.4216 24.6122 35.3893 24.5343 35.3318 24.4768C35.2744 24.4194 35.1964 24.3871 35.1152 24.3871H31.7365C31.6756 23.7119 31.4115 23.071 30.9792 22.5488ZM25.0049 13.9704C25.98 13.9704 26.9151 14.3578 27.6046 15.0472C28.294 15.7367 28.6814 16.6718 28.6814 17.6469C28.6814 18.6219 28.294 19.5571 27.6046 20.2465C26.9151 20.936 25.98 21.3234 25.0049 21.3234C24.0298 21.3234 23.0947 20.936 22.4052 20.2465C21.7158 19.5571 21.3284 18.6219 21.3284 17.6469C21.3284 16.6718 21.7158 15.7367 22.4052 15.0472C23.0947 14.3578 24.0298 13.9704 25.0049 13.9704ZM32.9706 15.1959C33.7831 15.1959 34.5624 15.5187 35.137 16.0932C35.7115 16.6678 36.0343 17.4471 36.0343 18.2596C36.0343 19.0722 35.7115 19.8514 35.137 20.426C34.5624 21.0006 33.7831 21.3234 32.9706 21.3234C32.158 21.3234 31.3788 21.0006 30.8042 20.426C30.2296 19.8514 29.9069 19.0722 29.9069 18.2596C29.9069 17.4471 30.2296 16.6678 30.8042 16.0932C31.3788 15.5187 32.158 15.1959 32.9706 15.1959ZM17.0392 15.1959C17.8518 15.1959 18.631 15.5187 19.2056 16.0932C19.7802 16.6678 20.1029 17.4471 20.1029 18.2596C20.1029 19.0722 19.7802 19.8514 19.2056 20.426C18.631 21.0006 17.8518 21.3234 17.0392 21.3234C16.2267 21.3234 15.4474 21.0006 14.8728 20.426C14.2983 19.8514 13.9755 19.0722 13.9755 18.2596C13.9755 17.4471 14.2983 16.6678 14.8728 16.0932C15.4474 15.5187 16.2267 15.1959 17.0392 15.1959ZM25.0049 15.8086C24.5174 15.8086 24.0498 16.0023 23.7051 16.3471C23.3603 16.6918 23.1667 17.1594 23.1667 17.6469C23.1667 18.1344 23.3603 18.602 23.7051 18.9467C24.0498 19.2914 24.5174 19.4851 25.0049 19.4851C25.4924 19.4851 25.96 19.2914 26.3047 18.9467C26.6495 18.602 26.8431 18.1344 26.8431 17.6469C26.8431 17.1594 26.6495 16.6918 26.3047 16.3471C25.96 16.0023 25.4924 15.8086 25.0049 15.8086ZM32.9706 17.0341C32.6456 17.0341 32.3339 17.1633 32.104 17.3931C31.8742 17.6229 31.7451 17.9346 31.7451 18.2596C31.7451 18.5846 31.8742 18.8964 32.104 19.1262C32.3339 19.356 32.6456 19.4851 32.9706 19.4851C33.2956 19.4851 33.6073 19.356 33.8371 19.1262C34.067 18.8964 34.1961 18.5846 34.1961 18.2596C34.1961 17.9346 34.067 17.6229 33.8371 17.3931C33.6073 17.1633 33.2956 17.0341 32.9706 17.0341ZM17.0392 17.0341C16.7142 17.0341 16.4025 17.1633 16.1727 17.3931C15.9428 17.6229 15.8137 17.9346 15.8137 18.2596C15.8137 18.5846 15.9428 18.8964 16.1727 19.1262C16.4025 19.356 16.7142 19.4851 17.0392 19.4851C17.3642 19.4851 17.6759 19.356 17.9058 19.1262C18.1356 18.8964 18.2647 18.5846 18.2647 18.2596C18.2647 17.9346 18.1356 17.6229 17.9058 17.3931C17.6759 17.1633 17.3642 17.0341 17.0392 17.0341Z" fill="#1A183E"/>
</svg>
