<svg xmlns="http://www.w3.org/2000/svg" width="40" height="39" viewBox="0 0 40 39" fill="none">
<g clip-path="url(#clip0_4333_35946)">
<path d="M27.2916 29.5653H32.2278L26.89 35.0188V29.9502C26.89 29.7378 27.0702 29.5653 27.2916 29.5653ZM21.3347 8.39087L22.8565 8.20221L21.9065 6.89568L21.3347 8.39087ZM35.2 0.939542V27.6862H27.2916C25.9888 27.6862 24.9292 28.7019 24.9292 29.9502V38.3333H5.78117C5.2396 38.3333 4.80078 37.9126 4.80078 37.3938V0.939542C4.80078 0.420727 5.2396 0 5.78117 0H34.2194C34.761 0 35.2 0.420727 35.2 0.939542ZM18.7741 12.3569C18.8855 12.3959 18.9992 12.4145 19.1116 12.4145C19.5112 12.4145 19.8867 12.1785 20.032 11.798L20.5741 10.3801L24.12 9.94036L25.021 11.1794C25.2118 11.4416 25.5163 11.5819 25.8261 11.5819C26.0196 11.5819 26.2151 11.5271 26.3857 11.4132C26.83 11.1165 26.939 10.531 26.6296 10.1053L22.438 4.34087C22.4365 4.33881 22.4343 4.33712 22.4327 4.33505C22.4057 4.29822 22.3733 4.26515 22.3406 4.23226C22.3286 4.22024 22.3184 4.20577 22.3059 4.19449C22.28 4.17119 22.2498 4.15203 22.2212 4.13136C22.1982 4.11482 22.1771 4.09584 22.1529 4.08137C22.1345 4.07029 22.1133 4.06296 22.0939 4.053C22.0561 4.03364 22.0186 4.01373 21.9786 3.99944C21.9759 3.9985 21.9737 3.99681 21.971 3.99587C21.948 3.98779 21.9245 3.98516 21.9016 3.97877C21.8657 3.969 21.8302 3.9581 21.7933 3.95228C21.7608 3.94702 21.7286 3.94664 21.6961 3.94476C21.6653 3.94288 21.6347 3.9395 21.6037 3.94025C21.5706 3.94119 21.5384 3.94664 21.5057 3.95078C21.4753 3.95453 21.4449 3.95698 21.4147 3.96355C21.3822 3.97069 21.3512 3.98216 21.3194 3.99249C21.291 4.0017 21.2622 4.00922 21.2343 4.02124C21.1967 4.0374 21.162 4.05826 21.1267 4.07874C21.109 4.08908 21.0904 4.09584 21.0731 4.1073C21.0712 4.10862 21.0696 4.1105 21.0676 4.11181C21.0282 4.1385 20.9927 4.17007 20.9576 4.2022C20.9457 4.2131 20.9318 4.2223 20.9204 4.23358C20.8967 4.25763 20.8774 4.28582 20.8565 4.31231C20.8384 4.33505 20.8178 4.35628 20.8023 4.38033C20.7922 4.39593 20.7855 4.41416 20.7761 4.43051C20.7543 4.46903 20.7325 4.50736 20.7167 4.54814C20.7157 4.55058 20.7141 4.55246 20.7133 4.5549L18.191 11.1514C18.0047 11.6387 18.2657 12.1783 18.7741 12.3569ZM21.3531 28.6258C21.3531 28.107 20.9143 27.6862 20.3727 27.6862H10.4416C9.9 27.6862 9.46117 28.107 9.46117 28.6258C9.46117 29.1446 9.9 29.5653 10.4416 29.5653H20.3729C20.9143 29.5653 21.3531 29.1446 21.3531 28.6258ZM25.5214 22.8946C25.5214 22.3758 25.0825 21.955 24.541 21.955H10.4416C9.9 21.955 9.46117 22.3758 9.46117 22.8946C9.46117 23.4134 9.9 23.8341 10.4416 23.8341H24.541C25.0825 23.8341 25.5214 23.4134 25.5214 22.8946ZM28.5788 17.1634C28.5788 16.6446 28.14 16.2238 27.5984 16.2238H10.4416C9.9 16.2238 9.46117 16.6446 9.46117 17.1634C9.46117 17.6822 9.9 18.1029 10.4416 18.1029H27.5984C28.14 18.1029 28.5788 17.6822 28.5788 17.1634ZM32.3135 6.01664C32.2441 5.50234 31.7543 5.13873 31.2153 5.20544L29.9053 5.36798L29.7357 4.11257C29.6663 3.59807 29.1767 3.23447 28.6374 3.30136C28.1006 3.36788 27.7214 3.83916 27.791 4.35365L27.9606 5.60907L26.6506 5.77161C26.1137 5.83813 25.7345 6.30922 25.8041 6.8239C25.868 7.29761 26.2898 7.64299 26.7753 7.64299C26.8171 7.64299 26.8596 7.64036 26.9023 7.6351L28.2123 7.47256L28.382 8.72797C28.4459 9.20169 28.8676 9.54707 29.3531 9.54707C29.3949 9.54707 29.4374 9.54444 29.48 9.53917C30.0169 9.47265 30.3961 9.00138 30.3265 8.48689L30.1569 7.23147L31.4669 7.06893C32.0039 7.00241 32.3829 6.53132 32.3135 6.01664Z" fill="#1A183E"/>
</g>
<defs>
<clipPath id="clip0_4333_35946">
<rect width="40" height="38.3333" fill="white"/>
</clipPath>
</defs>
</svg>