<svg xmlns="http://www.w3.org/2000/svg" width="40" height="40" viewBox="0 0 40 40" fill="none">
<path d="M24.5887 16.6667C26.1987 16.6667 27.5054 17.9733 27.5054 19.5833V27.4983C27.5054 29.4879 26.715 31.396 25.3082 32.8028C23.9013 34.2096 21.9933 35 20.0037 35C18.0141 35 16.1061 34.2096 14.6992 32.8028C13.2924 31.396 12.502 29.4879 12.502 27.4983V19.5833C12.502 17.9733 13.807 16.6667 15.4187 16.6667H24.5887ZM24.5887 19.1667H15.4187C15.3082 19.1667 15.2022 19.2106 15.1241 19.2887C15.0459 19.3668 15.002 19.4728 15.002 19.5833V27.4983C15.002 28.8249 15.529 30.097 16.467 31.035C17.405 31.973 18.6772 32.5 20.0037 32.5C21.3302 32.5 22.6024 31.973 23.5404 31.035C24.4784 30.097 25.0054 28.8249 25.0054 27.4983V19.5833C25.0054 19.4728 24.9615 19.3668 24.8833 19.2887C24.8052 19.2106 24.6992 19.1667 24.5887 19.1667ZM6.2487 16.6667H11.8837C11.2957 17.3768 10.9366 18.2484 10.8537 19.1667H6.2487C6.13819 19.1667 6.03221 19.2106 5.95407 19.2887C5.87593 19.3668 5.83203 19.4728 5.83203 19.5833V24.9983C5.83193 25.6281 5.97454 26.2498 6.24915 26.8166C6.52377 27.3833 6.92325 27.8805 7.41758 28.2708C7.91192 28.661 8.48826 28.9342 9.10331 29.0697C9.71836 29.2052 10.3561 29.1996 10.9687 29.0533C11.1104 29.8933 11.3687 30.695 11.7237 31.44C10.7358 31.7043 9.70042 31.7378 8.69752 31.538C7.69462 31.3382 6.75111 30.9105 5.93994 30.2878C5.12877 29.6651 4.47168 28.8642 4.01947 27.947C3.56726 27.0298 3.33205 26.0209 3.33203 24.9983V19.5833C3.33203 17.9733 4.6387 16.6667 6.2487 16.6667ZM28.1237 16.6667H33.7487C35.3587 16.6667 36.6654 17.9733 36.6654 19.5833V25C36.6656 26.0219 36.4309 27.0303 35.9793 27.947C35.5278 28.8638 34.8716 29.6645 34.0613 30.2873C33.251 30.91 32.3084 31.3382 31.3064 31.5386C30.3043 31.7391 29.2695 31.7065 28.282 31.4433C28.6387 30.6967 28.897 29.895 29.0404 29.055C29.6522 29.1996 30.2888 29.2039 30.9025 29.0675C31.5162 28.9311 32.0911 28.6577 32.5841 28.2676C33.0771 27.8775 33.4754 27.3809 33.7493 26.8151C34.0231 26.2492 34.1654 25.6287 34.1654 25V19.5833C34.1654 19.4728 34.1215 19.3668 34.0433 19.2887C33.9652 19.2106 33.8592 19.1667 33.7487 19.1667H29.1537C29.0708 18.2484 28.7117 17.3768 28.1237 16.6667ZM19.9987 5C21.3248 5 22.5965 5.52678 23.5342 6.46447C24.4719 7.40215 24.9987 8.67392 24.9987 10C24.9987 11.3261 24.4719 12.5979 23.5342 13.5355C22.5965 14.4732 21.3248 15 19.9987 15C18.6726 15 17.4008 14.4732 16.4632 13.5355C15.5255 12.5979 14.9987 11.3261 14.9987 10C14.9987 8.67392 15.5255 7.40215 16.4632 6.46447C17.4008 5.52678 18.6726 5 19.9987 5ZM30.832 6.66667C31.9371 6.66667 32.9969 7.10565 33.7783 7.88705C34.5597 8.66846 34.9987 9.72826 34.9987 10.8333C34.9987 11.9384 34.5597 12.9982 33.7783 13.7796C32.9969 14.561 31.9371 15 30.832 15C29.727 15 28.6672 14.561 27.8858 13.7796C27.1044 12.9982 26.6654 11.9384 26.6654 10.8333C26.6654 9.72826 27.1044 8.66846 27.8858 7.88705C28.6672 7.10565 29.727 6.66667 30.832 6.66667ZM9.16536 6.66667C10.2704 6.66667 11.3302 7.10565 12.1116 7.88705C12.893 8.66846 13.332 9.72826 13.332 10.8333C13.332 11.9384 12.893 12.9982 12.1116 13.7796C11.3302 14.561 10.2704 15 9.16536 15C8.0603 15 7.00049 14.561 6.21909 13.7796C5.43768 12.9982 4.9987 11.9384 4.9987 10.8333C4.9987 9.72826 5.43768 8.66846 6.21909 7.88705C7.00049 7.10565 8.0603 6.66667 9.16536 6.66667ZM19.9987 7.5C19.3357 7.5 18.6998 7.76339 18.2309 8.23223C17.7621 8.70107 17.4987 9.33696 17.4987 10C17.4987 10.663 17.7621 11.2989 18.2309 11.7678C18.6998 12.2366 19.3357 12.5 19.9987 12.5C20.6617 12.5 21.2976 12.2366 21.7665 11.7678C22.2353 11.2989 22.4987 10.663 22.4987 10C22.4987 9.33696 22.2353 8.70107 21.7665 8.23223C21.2976 7.76339 20.6617 7.5 19.9987 7.5ZM30.832 9.16667C30.39 9.16667 29.9661 9.34226 29.6535 9.65482C29.341 9.96738 29.1654 10.3913 29.1654 10.8333C29.1654 11.2754 29.341 11.6993 29.6535 12.0118C29.9661 12.3244 30.39 12.5 30.832 12.5C31.2741 12.5 31.698 12.3244 32.0105 12.0118C32.3231 11.6993 32.4987 11.2754 32.4987 10.8333C32.4987 10.3913 32.3231 9.96738 32.0105 9.65482C31.698 9.34226 31.2741 9.16667 30.832 9.16667ZM9.16536 9.16667C8.72334 9.16667 8.29941 9.34226 7.98685 9.65482C7.67429 9.96738 7.4987 10.3913 7.4987 10.8333C7.4987 11.2754 7.67429 11.6993 7.98685 12.0118C8.29941 12.3244 8.72334 12.5 9.16536 12.5C9.60739 12.5 10.0313 12.3244 10.3439 12.0118C10.6564 11.6993 10.832 11.2754 10.832 10.8333C10.832 10.3913 10.6564 9.96738 10.3439 9.65482C10.0313 9.34226 9.60739 9.16667 9.16536 9.16667Z" fill="#1A183E"/>
</svg>