<svg xmlns="http://www.w3.org/2000/svg" width="14" height="15" viewBox="0 0 14 15" fill="none">
<path d="M10.5 13.3695H3.5C3.26801 13.3692 3.04558 13.2808 2.88154 13.1236C2.71749 12.9664 2.62523 12.7533 2.625 12.5309V2.46842C2.62523 2.2461 2.71749 2.03294 2.88154 1.87573C3.04558 1.71852 3.26801 1.6301 3.5 1.62988H10.5C10.732 1.6301 10.9544 1.71852 11.1185 1.87573C11.2825 2.03294 11.3748 2.2461 11.375 2.46842V9.43587L9.1875 8.38769L7 9.43587V2.46842H3.5V12.5309H10.5V10.8538H11.375V12.5309C11.3747 12.7532 11.2824 12.9663 11.1183 13.1235C10.9543 13.2807 10.732 13.3691 10.5 13.3695ZM9.1875 7.4502L10.5 8.07911V2.46842H7.875V8.07911L9.1875 7.4502Z" fill="#7A7A7A"/>
</svg>