<svg width="10" height="13" viewBox="0 0 10 13" fill="none" xmlns="http://www.w3.org/2000/svg">
<path d="M5 7.77456C4.84259 7.77456 4.71074 7.71338 4.60444 7.59102C4.49778 7.46908 4.44444 7.31783 4.44444 7.13726C4.44444 6.95669 4.49778 6.80523 4.60444 6.68287C4.71074 6.56093 4.84259 6.49996 5 6.49996C5.15741 6.49996 5.28944 6.56093 5.39611 6.68287C5.50241 6.80523 5.55556 6.95669 5.55556 7.13726C5.55556 7.31783 5.50241 7.46908 5.39611 7.59102C5.28944 7.71338 5.15741 7.77456 5 7.77456ZM2.77778 7.77456C2.62037 7.77456 2.48833 7.71338 2.38167 7.59102C2.27537 7.46908 2.22222 7.31783 2.22222 7.13726C2.22222 6.95669 2.27537 6.80523 2.38167 6.68287C2.48833 6.56093 2.62037 6.49996 2.77778 6.49996C2.93519 6.49996 3.06722 6.56093 3.17389 6.68287C3.28019 6.80523 3.33333 6.95669 3.33333 7.13726C3.33333 7.31783 3.28019 7.46908 3.17389 7.59102C3.06722 7.71338 2.93519 7.77456 2.77778 7.77456ZM7.22222 7.77456C7.06482 7.77456 6.93296 7.71338 6.82667 7.59102C6.72 7.46908 6.66667 7.31783 6.66667 7.13726C6.66667 6.95669 6.72 6.80523 6.82667 6.68287C6.93296 6.56093 7.06482 6.49996 7.22222 6.49996C7.37963 6.49996 7.51148 6.56093 7.61778 6.68287C7.72444 6.80523 7.77778 6.95669 7.77778 7.13726C7.77778 7.31783 7.72444 7.46908 7.61778 7.59102C7.51148 7.71338 7.37963 7.77456 7.22222 7.77456ZM5 10.3238C4.84259 10.3238 4.71074 10.2626 4.60444 10.1402C4.49778 10.0183 4.44444 9.86703 4.44444 9.68647C4.44444 9.5059 4.49778 9.35465 4.60444 9.23271C4.71074 9.11035 4.84259 9.04917 5 9.04917C5.15741 9.04917 5.28944 9.11035 5.39611 9.23271C5.50241 9.35465 5.55556 9.5059 5.55556 9.68647C5.55556 9.86703 5.50241 10.0183 5.39611 10.1402C5.28944 10.2626 5.15741 10.3238 5 10.3238ZM2.77778 10.3238C2.62037 10.3238 2.48833 10.2626 2.38167 10.1402C2.27537 10.0183 2.22222 9.86703 2.22222 9.68647C2.22222 9.5059 2.27537 9.35465 2.38167 9.23271C2.48833 9.11035 2.62037 9.04917 2.77778 9.04917C2.93519 9.04917 3.06722 9.11035 3.17389 9.23271C3.28019 9.35465 3.33333 9.5059 3.33333 9.68647C3.33333 9.86703 3.28019 10.0183 3.17389 10.1402C3.06722 10.2626 2.93519 10.3238 2.77778 10.3238ZM7.22222 10.3238C7.06482 10.3238 6.93296 10.2626 6.82667 10.1402C6.72 10.0183 6.66667 9.86703 6.66667 9.68647C6.66667 9.5059 6.72 9.35465 6.82667 9.23271C6.93296 9.11035 7.06482 9.04917 7.22222 9.04917C7.37963 9.04917 7.51148 9.11035 7.61778 9.23271C7.72444 9.35465 7.77778 9.5059 7.77778 9.68647C7.77778 9.86703 7.72444 10.0183 7.61778 10.1402C7.51148 10.2626 7.37963 10.3238 7.22222 10.3238ZM1.11111 12.873C0.805556 12.873 0.543889 12.7483 0.326111 12.4989C0.108704 12.2491 0 11.9489 0 11.5984V2.67616C0 2.32564 0.108704 2.02568 0.326111 1.77629C0.543889 1.52647 0.805556 1.40155 1.11111 1.40155H1.66667V0.126953H2.77778V1.40155H7.22222V0.126953H8.33333V1.40155H8.88889C9.19444 1.40155 9.45611 1.52647 9.67389 1.77629C9.8913 2.02568 10 2.32564 10 2.67616V11.5984C10 11.9489 9.8913 12.2491 9.67389 12.4989C9.45611 12.7483 9.19444 12.873 8.88889 12.873H1.11111ZM1.11111 11.5984H8.88889V5.22536H1.11111V11.5984Z" fill="#7A7A7A"/>
</svg>
