<svg width="16" height="16" viewBox="0 0 16 16" fill="none" xmlns="http://www.w3.org/2000/svg">
<circle cx="8" cy="8" r="7.5" stroke="#1A183E"/>
<path d="M4.85938 4.85034L5.29688 11.8503C5.31766 12.2548 5.61188 12.5503 5.99688 12.5503H10.0219C10.4084 12.5503 10.6972 12.2548 10.7219 11.8503L11.1594 4.85034" stroke="#1A183E" stroke-width="0.8" stroke-linecap="round" stroke-linejoin="round"/>
<path d="M4.15625 4.85034H11.8563H4.15625Z" fill="#1A183E"/>
<path d="M4.15625 4.85034H11.8563" stroke="#1A183E" stroke-width="0.8" stroke-miterlimit="10" stroke-linecap="round"/>
<path d="M6.60469 4.85044V3.97544C6.60449 3.90644 6.61793 3.83808 6.64424 3.77429C6.67055 3.71051 6.70921 3.65255 6.75801 3.60376C6.8068 3.55497 6.86475 3.51631 6.92854 3.48999C6.99233 3.46368 7.06069 3.45024 7.12969 3.45044H8.87969C8.94869 3.45024 9.01705 3.46368 9.08084 3.48999C9.14462 3.51631 9.20258 3.55497 9.25137 3.60376C9.30016 3.65255 9.33882 3.71051 9.36514 3.77429C9.39145 3.83808 9.40489 3.90644 9.40469 3.97544V4.85044M8.00469 6.25044V11.1504M6.42969 6.25044L6.60469 11.1504M9.57969 6.25044L9.40469 11.1504" stroke="#1A183E" stroke-width="0.8" stroke-linecap="round" stroke-linejoin="round"/>
</svg>
