<svg width="10" height="10" viewBox="0 0 10 10" fill="none" xmlns="http://www.w3.org/2000/svg">
<g clip-path="url(#clip0_4660_70069)">
<path d="M5 0.9375C4.19652 0.9375 3.41107 1.17576 2.743 1.62215C2.07492 2.06855 1.55422 2.70302 1.24674 3.44535C0.93926 4.18767 0.858809 5.00451 1.01556 5.79255C1.17231 6.5806 1.55923 7.30447 2.12738 7.87262C2.69553 8.44077 3.4194 8.82769 4.20745 8.98444C4.9955 9.14119 5.81233 9.06074 6.55465 8.75326C7.29698 8.44578 7.93145 7.92508 8.37785 7.257C8.82424 6.58893 9.0625 5.80349 9.0625 5C9.06136 3.92291 8.63299 2.89025 7.87137 2.12863C7.10975 1.36701 6.07709 0.938637 5 0.9375ZM3.96992 6.5625H6.03008C5.82031 7.27891 5.46875 7.92461 5 8.4332C4.53125 7.92461 4.17969 7.27891 3.96992 6.5625ZM3.82813 5.9375C3.72448 5.3168 3.72448 4.6832 3.82813 4.0625H6.17188C6.27552 4.6832 6.27552 5.3168 6.17188 5.9375H3.82813ZM1.5625 5C1.56223 4.68298 1.60601 4.36747 1.69258 4.0625H3.19492C3.1017 4.68402 3.1017 5.31598 3.19492 5.9375H1.69258C1.60601 5.63253 1.56223 5.31702 1.5625 5ZM6.03008 3.4375H3.96992C4.17969 2.72109 4.53125 2.07539 5 1.5668C5.46875 2.07539 5.82031 2.72109 6.03008 3.4375ZM6.80508 4.0625H8.30742C8.48086 4.67547 8.48086 5.32453 8.30742 5.9375H6.80508C6.89831 5.31598 6.89831 4.68402 6.80508 4.0625ZM8.06133 3.4375H6.67735C6.51787 2.80997 6.25004 2.2151 5.88594 1.67969C6.35111 1.8047 6.78498 2.02567 7.15963 2.32841C7.53429 2.63115 7.84144 3.00894 8.06133 3.4375ZM4.11406 1.67969C3.74996 2.2151 3.48214 2.80997 3.32266 3.4375H1.93867C2.15857 3.00894 2.46572 2.63115 2.84037 2.32841C3.21502 2.02567 3.64889 1.8047 4.11406 1.67969ZM1.93867 6.5625H3.32266C3.48214 7.19003 3.74996 7.7849 4.11406 8.32031C3.64889 8.1953 3.21502 7.97433 2.84037 7.67159C2.46572 7.36885 2.15857 6.99106 1.93867 6.5625ZM5.88594 8.32031C6.25004 7.7849 6.51787 7.19003 6.67735 6.5625H8.06133C7.84144 6.99106 7.53429 7.36885 7.15963 7.67159C6.78498 7.97433 6.35111 8.1953 5.88594 8.32031Z" fill="#388E3C"/>
</g>
<defs>
<clipPath id="clip0_4660_70069">
<rect width="10" height="10" fill="white"/>
</clipPath>
</defs>
</svg>
