<svg width="11" height="12" viewBox="0 0 11 12" fill="none" xmlns="http://www.w3.org/2000/svg">
<g clip-path="url(#clip0_4660_70049)">
<path d="M6.27061 2.50654C6.02993 2.39252 5.76693 2.33337 5.50061 2.33337C5.23429 2.33337 4.97129 2.39252 4.73061 2.50654L0.262777 4.62313C0.180545 4.66192 0.11171 4.7243 0.0650258 4.80232C0.018342 4.88034 -0.00408037 4.97049 0.000610546 5.06129V7.83513C0.000610546 7.95668 0.0488991 8.07326 0.134853 8.15922C0.220807 8.24517 0.337386 8.29346 0.458944 8.29346C0.580501 8.29346 0.69708 8.24517 0.783035 8.15922C0.868989 8.07326 0.917277 7.95668 0.917277 7.83513V5.77629L1.83394 6.23096V8.75179C1.83396 8.81209 1.84587 8.87178 1.86899 8.92747C1.89211 8.98315 1.92599 9.03373 1.96869 9.07629L1.99161 9.09829L2.04661 9.14871C2.3339 9.40473 2.64447 9.63336 2.97428 9.83163C3.58661 10.2001 4.47119 10.5851 5.50061 10.5851C6.53003 10.5851 7.41461 10.2001 8.02786 9.83163C8.35767 9.63337 8.66824 9.40473 8.95553 9.14871L9.01053 9.09829L9.03161 9.07629H9.03344C9.07609 9.03354 9.10986 8.98278 9.13283 8.92694C9.1558 8.87109 9.16751 8.81126 9.16728 8.75088V6.23004L10.7458 5.44721C10.8229 5.40899 10.8878 5.34982 10.9329 5.27645C10.9779 5.20309 11.0015 5.11852 11.0007 5.03241C10.9999 4.94631 10.9749 4.86216 10.9285 4.78961C10.8822 4.71706 10.8163 4.65905 10.7384 4.62221L6.27061 2.50654ZM6.29994 7.65363L8.25061 6.68563V8.54829C8.03317 8.73273 7.8011 8.89919 7.55669 9.04604C7.02503 9.36504 6.30453 9.66846 5.50061 9.66846C4.69669 9.66846 3.97711 9.36596 3.44453 9.04604C3.20012 8.89919 2.96806 8.73273 2.75061 8.54829V6.68563L4.70128 7.65363C5.20544 7.90296 5.79578 7.90296 6.29994 7.65363ZM5.87828 3.33521L9.49178 5.04663L5.89203 6.83229C5.77035 6.89256 5.6364 6.92392 5.50061 6.92392C5.36482 6.92392 5.23087 6.89256 5.10919 6.83229L1.50944 5.04663L5.12294 3.33521C5.24099 3.27926 5.36998 3.25024 5.50061 3.25024C5.63124 3.25024 5.76024 3.27926 5.87828 3.33521Z" fill="#FF00F8"/>
</g>
<defs>
<clipPath id="clip0_4660_70049">
<rect width="11" height="11" fill="white" transform="translate(0 0.5)"/>
</clipPath>
</defs>
</svg>
