<svg width="14" height="15" viewBox="0 0 14 15" fill="none" xmlns="http://www.w3.org/2000/svg">
<path d="M11.6667 10.4166C11.9761 10.4166 12.2728 10.2937 12.4916 10.0749C12.7104 9.85612 12.8333 9.55938 12.8333 9.24996V2.83329C12.8333 2.52387 12.7104 2.22713 12.4916 2.00833C12.2728 1.78954 11.9761 1.66663 11.6667 1.66663H5.51833C5.7225 2.02246 5.83333 2.42496 5.83333 2.83329H11.6667V9.24996H6.41667V10.4166M8.75 4.58329V5.74996H5.25V13.3333H4.08333V9.83329H2.91667V13.3333H1.75V8.66663H0.875V5.74996C0.875 5.44054 0.997916 5.14379 1.21671 4.925C1.4355 4.70621 1.73225 4.58329 2.04167 4.58329H8.75ZM4.66667 2.83329C4.66667 3.14271 4.54375 3.43946 4.32496 3.65825C4.10617 3.87704 3.80942 3.99996 3.5 3.99996C3.19058 3.99996 2.89383 3.87704 2.67504 3.65825C2.45625 3.43946 2.33333 3.14271 2.33333 2.83329C2.33333 2.52387 2.45625 2.22713 2.67504 2.00833C2.89383 1.78954 3.19058 1.66663 3.5 1.66663C3.80942 1.66663 4.10617 1.78954 4.32496 2.00833C4.54375 2.22713 4.66667 2.52387 4.66667 2.83329Z" fill="#7A7A7A"/>
</svg>
