<svg xmlns="http://www.w3.org/2000/svg" width="10" height="10" viewBox="0 0 10 10" fill="none">
<g clip-path="url(#clip0_4842_92983)">
<path d="M8.33333 7.0835C8.55435 7.0835 8.76631 6.9957 8.92259 6.83942C9.07887 6.68314 9.16667 6.47118 9.16667 6.25016V1.66683C9.16667 1.44582 9.07887 1.23385 8.92259 1.07757C8.76631 0.921293 8.55435 0.833496 8.33333 0.833496H3.94167C4.0875 1.08766 4.16667 1.37516 4.16667 1.66683H8.33333V6.25016H4.58333V7.0835M6.25 2.91683V3.75016H3.75V9.16683H2.91667V6.66683H2.08333V9.16683H1.25V5.8335H0.625V3.75016C0.625 3.52915 0.712797 3.31719 0.869078 3.16091C1.02536 3.00463 1.23732 2.91683 1.45833 2.91683H6.25ZM3.33333 1.66683C3.33333 1.88784 3.24554 2.0998 3.08926 2.25609C2.93298 2.41237 2.72101 2.50016 2.5 2.50016C2.27899 2.50016 2.06702 2.41237 1.91074 2.25609C1.75446 2.0998 1.66667 1.88784 1.66667 1.66683C1.66667 1.44582 1.75446 1.23385 1.91074 1.07757C2.06702 0.921293 2.27899 0.833496 2.5 0.833496C2.72101 0.833496 2.93298 0.921293 3.08926 1.07757C3.24554 1.23385 3.33333 1.44582 3.33333 1.66683Z" fill="#FF00F8"/>
</g>
<defs>
<clipPath id="clip0_4842_92983">
<rect width="10" height="10" fill="white" transform="translate(0 0.000244141)"/>
</clipPath>
</defs>
</svg>