<svg xmlns="http://www.w3.org/2000/svg" width="15" height="15" viewBox="0 0 15 15" fill="none">
<g clip-path="url(#clip0_4357_49657)">
<path d="M13.332 2.5C13.6684 2.4999 13.9924 2.619 14.2391 2.83344C14.4857 3.04787 14.6368 3.34178 14.662 3.65625L14.6654 3.75V11.25C14.6655 11.5654 14.5384 11.8691 14.3097 12.1003C14.081 12.3316 13.7675 12.4732 13.432 12.4969L13.332 12.5H2.66536C2.32898 12.5001 2.00499 12.381 1.75833 12.1666C1.51168 11.9521 1.36059 11.6582 1.33536 11.3438L1.33203 11.25V3.75C1.33192 3.43464 1.45897 3.1309 1.6877 2.89966C1.91642 2.66842 2.22993 2.52678 2.56536 2.50313L2.66536 2.5H13.332ZM13.332 4.63375L8.70536 8.97125C8.51786 9.14681 8.2637 9.24542 7.9987 9.24542C7.7337 9.24542 7.47953 9.14681 7.29203 8.97125L2.66536 4.63375V11.25H13.332V4.63375ZM12.3894 3.75H3.60803L7.9987 7.86625L12.3894 3.75Z" fill="#1A183E"/>
</g>
<defs>
<clipPath id="clip0_4357_49657">
<rect width="15" height="15" fill="white"/>
</clipPath>
</defs>
</svg>