<svg xmlns="http://www.w3.org/2000/svg" width="40" height="37" viewBox="0 0 40 37" fill="none">
<path d="M34.375 27.6894C35.2344 28.1061 36.0091 28.6174 36.6992 29.2235C37.3893 29.8295 37.9753 30.5051 38.457 31.25C38.9388 31.995 39.3164 32.803 39.5898 33.6742C39.8633 34.5455 40 35.4419 40 36.3636H37.5C37.5 35.3662 37.3047 34.4255 36.9141 33.5417C36.5234 32.6578 35.9896 31.8876 35.3125 31.2311C34.6354 30.5745 33.8346 30.0505 32.9102 29.6591C31.9857 29.2677 31.0156 29.0783 30 29.0909C28.9583 29.0909 27.9883 29.2803 27.0898 29.6591C26.1914 30.0379 25.3971 30.5556 24.707 31.2121C24.0169 31.8687 23.4766 32.6452 23.0859 33.5417C22.6953 34.4381 22.5 35.3788 22.5 36.3636H20C20 35.4419 20.1302 34.5455 20.3906 33.6742C20.651 32.803 21.0286 31.995 21.5234 31.25C22.0182 30.5051 22.6107 29.8295 23.3008 29.2235C23.9909 28.6174 24.7656 28.1061 25.625 27.6894C24.6484 27.0076 23.8867 26.1553 23.3398 25.1326C22.793 24.1098 22.513 23.0051 22.5 21.8182C22.5 20.8207 22.6953 19.8801 23.0859 18.9962C23.4766 18.1124 24.0104 17.3422 24.6875 16.6856C25.3646 16.029 26.1589 15.5051 27.0703 15.1136C27.9818 14.7222 28.9583 14.5328 30 14.5455C31.0286 14.5455 31.9987 14.7348 32.9102 15.1136C33.8216 15.4924 34.6159 16.0101 35.293 16.6667C35.9701 17.3232 36.5104 18.0997 36.9141 18.9962C37.3177 19.8927 37.513 20.8333 37.5 21.8182C37.5 23.0051 37.2266 24.1098 36.6797 25.1326C36.1328 26.1553 35.3646 27.0076 34.375 27.6894ZM30 26.6667C30.6901 26.6667 31.3346 26.5404 31.9336 26.2879C32.5326 26.0354 33.0664 25.6881 33.5352 25.2462C34.0039 24.8043 34.362 24.2929 34.6094 23.7121C34.8568 23.1313 34.987 22.5 35 21.8182C35 21.149 34.8698 20.524 34.6094 19.9432C34.349 19.3624 33.9909 18.8447 33.5352 18.3902C33.0794 17.9356 32.5521 17.5884 31.9531 17.3485C31.3542 17.1086 30.7031 16.9823 30 16.9697C29.3099 16.9697 28.6654 17.096 28.0664 17.3485C27.4674 17.601 26.9336 17.9482 26.4648 18.3902C25.9961 18.8321 25.638 19.3434 25.3906 19.9242C25.1432 20.5051 25.013 21.1364 25 21.8182C25 22.4874 25.1302 23.1124 25.3906 23.6932C25.651 24.274 26.0091 24.7917 26.4648 25.2462C26.9206 25.7008 27.4479 26.048 28.0469 26.2879C28.6458 26.5278 29.2969 26.654 30 26.6667ZM20 28.1818C19.5833 28.649 19.2057 29.1351 18.8672 29.6402C18.5286 30.1452 18.2292 30.6881 17.9688 31.2689C17.2786 30.5745 16.4453 30.0379 15.4688 29.6591C14.4922 29.2803 13.5026 29.0909 12.5 29.0909H5V4.84848H2.5V31.5152H17.8711C17.6888 31.9066 17.5391 32.3043 17.4219 32.7083C17.3047 33.1124 17.207 33.5227 17.1289 33.9394H0V2.42424H5V0H12.5C13.6458 0 14.7461 0.170455 15.8008 0.511364C16.8555 0.852273 17.8385 1.36364 18.75 2.04545C19.6484 1.36364 20.625 0.852273 21.6797 0.511364C22.7344 0.170455 23.8411 0 25 0H32.5V2.42424H37.5V14.5455C36.7448 13.8258 35.9115 13.226 35 12.7462V4.84848H32.5V11.8371C32.0833 11.7235 31.6667 11.6414 31.25 11.5909C30.8333 11.5404 30.4167 11.5152 30 11.5152V2.42424H25C24.0885 2.42424 23.2031 2.57576 22.3438 2.87879C21.4844 3.18182 20.7031 3.63005 20 4.22348V28.1818ZM17.5 27.9356V4.22348C16.7969 3.64268 16.0156 3.20076 15.1562 2.89773C14.2969 2.5947 13.4115 2.43687 12.5 2.42424H7.5V26.6667H12.5C13.3724 26.6667 14.2318 26.774 15.0781 26.9886C15.9245 27.2033 16.7318 27.5189 17.5 27.9356Z" fill="#1A183E"/>
</svg>