<svg width="11" height="10" viewBox="0 0 11 10" fill="none" xmlns="http://www.w3.org/2000/svg">
<path d="M9.45312 7.61458C9.68945 7.72917 9.90251 7.86979 10.0923 8.03646C10.2821 8.20312 10.4432 8.38889 10.5757 8.59375C10.7082 8.79861 10.812 9.02083 10.8872 9.26042C10.9624 9.5 11 9.74653 11 10H10.3125C10.3125 9.72569 10.2588 9.46701 10.1514 9.22396C10.0439 8.9809 9.89714 8.7691 9.71094 8.58854C9.52474 8.40799 9.30452 8.26389 9.05029 8.15625C8.79606 8.04861 8.5293 7.99653 8.25 8C7.96354 8 7.69678 8.05208 7.44971 8.15625C7.20264 8.26042 6.98421 8.40278 6.79443 8.58333C6.60465 8.76389 6.45605 8.97743 6.34863 9.22396C6.24121 9.47049 6.1875 9.72917 6.1875 10H5.5C5.5 9.74653 5.53581 9.5 5.60742 9.26042C5.67904 9.02083 5.78288 8.79861 5.91895 8.59375C6.05501 8.38889 6.21794 8.20312 6.40771 8.03646C6.59749 7.86979 6.81055 7.72917 7.04688 7.61458C6.77832 7.42708 6.56885 7.19271 6.41846 6.91146C6.26807 6.63021 6.19108 6.32639 6.1875 6C6.1875 5.72569 6.24121 5.46701 6.34863 5.22396C6.45605 4.9809 6.60286 4.7691 6.78906 4.58854C6.97526 4.40799 7.19369 4.26389 7.44434 4.15625C7.69499 4.04861 7.96354 3.99653 8.25 4C8.53288 4 8.79964 4.05208 9.05029 4.15625C9.30094 4.26042 9.51937 4.40278 9.70557 4.58333C9.89176 4.76389 10.0404 4.97743 10.1514 5.22396C10.2624 5.47049 10.3161 5.72917 10.3125 6C10.3125 6.32639 10.2373 6.63021 10.0869 6.91146C9.93652 7.19271 9.72526 7.42708 9.45312 7.61458ZM8.25 7.33333C8.43978 7.33333 8.61702 7.29861 8.78174 7.22917C8.94645 7.15972 9.09326 7.06424 9.22217 6.94271C9.35107 6.82118 9.44954 6.68056 9.51758 6.52083C9.58561 6.36111 9.62142 6.1875 9.625 6C9.625 5.81597 9.58919 5.6441 9.51758 5.48438C9.44596 5.32465 9.34749 5.18229 9.22217 5.05729C9.09684 4.93229 8.95182 4.83681 8.78711 4.77083C8.6224 4.70486 8.44336 4.67014 8.25 4.66667C8.06022 4.66667 7.88298 4.70139 7.71826 4.77083C7.55355 4.84028 7.40674 4.93576 7.27783 5.05729C7.14893 5.17882 7.05046 5.31944 6.98242 5.47917C6.91439 5.63889 6.87858 5.8125 6.875 6C6.875 6.18403 6.91081 6.3559 6.98242 6.51562C7.05404 6.67535 7.15251 6.81771 7.27783 6.94271C7.40316 7.06771 7.54818 7.16319 7.71289 7.22917C7.8776 7.29514 8.05664 7.32986 8.25 7.33333ZM5.5 7.75C5.38542 7.87847 5.28158 8.01215 5.18848 8.15104C5.09538 8.28993 5.01302 8.43924 4.94141 8.59896C4.75163 8.40799 4.52246 8.26042 4.25391 8.15625C3.98535 8.05208 3.71322 8 3.4375 8H1.375V1.33333H0.6875V8.66667H4.91455C4.86442 8.77431 4.82324 8.88368 4.79102 8.99479C4.75879 9.1059 4.73193 9.21875 4.71045 9.33333H0V0.666667H1.375V0H3.4375C3.7526 0 4.05518 0.046875 4.34521 0.140625C4.63525 0.234375 4.9056 0.375 5.15625 0.5625C5.40332 0.375 5.67188 0.234375 5.96191 0.140625C6.25195 0.046875 6.55631 0 6.875 0H8.9375V0.666667H10.3125V4C10.1048 3.80208 9.87565 3.63715 9.625 3.50521V1.33333H8.9375V3.25521C8.82292 3.22396 8.70833 3.20139 8.59375 3.1875C8.47917 3.17361 8.36458 3.16667 8.25 3.16667V0.666667H6.875C6.62435 0.666667 6.38086 0.708333 6.14453 0.791667C5.9082 0.875 5.69336 0.998264 5.5 1.16146V7.75ZM4.8125 7.68229V1.16146C4.61914 1.00174 4.4043 0.880208 4.16797 0.796875C3.93164 0.713542 3.68815 0.670139 3.4375 0.666667H2.0625V7.33333H3.4375C3.67741 7.33333 3.91374 7.36285 4.14648 7.42188C4.37923 7.4809 4.60124 7.56771 4.8125 7.68229Z" fill="#FF00F8"/>
</svg>
