<svg width="50" height="50" viewBox="0 0 50 50" fill="none" xmlns="http://www.w3.org/2000/svg">
<circle cx="25" cy="25" r="25" fill="#D8E4FF"/>
<path d="M26.7057 20.4611C27.7328 20.0986 28.5545 19.2769 28.917 18.2498H32.7474L29.1224 26.7082C29.1224 28.714 31.0195 30.3332 33.3516 30.3332C35.6836 30.3332 37.5807 28.714 37.5807 26.7082L33.9557 18.2498H36.3724V15.8332H28.917C28.4216 14.4194 27.0803 13.4165 25.4974 13.4165C23.9145 13.4165 22.5732 14.4194 22.0778 15.8332H14.6224V18.2498H17.0391L13.4141 26.7082C13.4141 28.714 15.3111 30.3332 17.6432 30.3332C19.9753 30.3332 21.8724 28.714 21.8724 26.7082L18.2474 18.2498H22.0778C22.4403 19.2769 23.262 20.0986 24.2891 20.4611V33.9582H13.4141V36.3748H37.5807V33.9582H26.7057V20.4611ZM35.6111 26.7082H31.092L33.3516 21.4398L35.6111 26.7082ZM19.9028 26.7082H15.3836L17.6432 21.4398L19.9028 26.7082ZM25.4974 18.2498C24.8328 18.2498 24.2891 17.7061 24.2891 17.0415C24.2891 16.3769 24.8328 15.8332 25.4974 15.8332C26.162 15.8332 26.7057 16.3769 26.7057 17.0415C26.7057 17.7061 26.162 18.2498 25.4974 18.2498Z" fill="black"/>
</svg>
