<svg width="50" height="50" viewBox="0 0 50 50" fill="none" xmlns="http://www.w3.org/2000/svg">
<circle cx="25" cy="25" r="25" fill="#D8E4FF"/>
<g clip-path="url(#clip0_4695_88466)">
<path d="M16.8308 23.6186C15.2121 23.3862 13.7315 22.578 12.6605 21.3422C11.5895 20.1064 11 18.5259 11 16.8906V15.9844C11 14.2335 12.421 12.8125 14.1719 12.8125H16.6296C17.0429 11.7522 18.0724 11 19.2795 11H31.7205C32.8932 11 33.9444 11.7196 34.3704 12.8125H36.8281C38.579 12.8125 40 14.2335 40 15.9844V16.8906C40 18.5259 39.4105 20.1064 38.3395 21.3422C37.2685 22.578 35.7879 23.3862 34.1692 23.6186C33.7865 24.8656 33.1399 26.0155 32.2732 26.9904C31.4066 27.9652 30.3403 28.7421 29.1467 29.2682L29.4078 31.8891C29.4168 31.9797 29.4621 32.1066 29.6144 32.2588C29.7703 32.4165 30.0077 32.5669 30.2904 32.6702C30.8034 32.8569 31.4106 33.1669 31.9036 33.6998C32.4201 34.2616 32.75 35.0102 32.75 35.9219V37.2812H35.0156C35.3762 37.2812 35.7219 37.4245 35.9768 37.6794C36.2318 37.9343 36.375 38.2801 36.375 38.6406C36.375 39.0012 36.2318 39.3469 35.9768 39.6018C35.7219 39.8568 35.3762 40 35.0156 40H15.9844C15.6238 40 15.2781 39.8568 15.0232 39.6018C14.7682 39.3469 14.625 39.0012 14.625 38.6406C14.625 38.2801 14.7682 37.9343 15.0232 37.6794C15.2781 37.4245 15.6238 37.2812 15.9844 37.2812H18.25V35.9219C18.25 35.0102 18.5799 34.2616 19.0982 33.6998C19.5876 33.1669 20.1966 32.8569 20.7096 32.6702C20.9615 32.5833 21.1917 32.4419 21.3856 32.2588C21.5379 32.1047 21.5832 31.9815 21.5922 31.8891L21.8532 29.2682C20.6601 28.7418 19.5942 27.9648 18.7279 26.99C17.8616 26.0152 17.2134 24.8654 16.8308 23.6186ZM19.1562 13.842V20.9688C19.1562 22.6512 19.8246 24.2648 21.0143 25.4545C22.204 26.6441 23.8175 27.3125 25.5 27.3125C27.1825 27.3125 28.796 26.6441 29.9857 25.4545C31.1754 24.2648 31.8438 22.6512 31.8438 20.9688V13.842C31.8438 13.8093 31.8308 13.778 31.8077 13.7548C31.7845 13.7317 31.7532 13.7188 31.7205 13.7188H19.2795C19.2468 13.7188 19.2155 13.7317 19.1923 13.7548C19.1692 13.778 19.1562 13.8093 19.1562 13.842ZM24.5158 29.9769L24.2983 32.1591C24.1298 33.8357 22.7432 34.8235 21.6394 35.2241C21.4361 35.2873 21.25 35.3964 21.0956 35.5431C21.0286 35.6156 20.9688 35.7116 20.9688 35.9237V37.2831H30.0312V35.9237C30.0312 35.7116 29.9714 35.6156 29.9044 35.5431C29.75 35.3964 29.5639 35.2873 29.3606 35.2241C28.2568 34.8235 26.8702 33.8357 26.7035 32.1609L26.486 29.9787C25.8312 30.0494 25.1706 30.0476 24.5158 29.9769ZM34.5625 15.5312V20.7368C35.3578 20.4556 36.0463 19.9347 36.5333 19.2459C37.0202 18.557 37.2815 17.7342 37.2812 16.8906V15.9844C37.2812 15.8642 37.2335 15.7489 37.1485 15.664C37.0636 15.579 36.9483 15.5312 36.8281 15.5312H34.5625ZM16.4375 15.5312H14.1719C14.0517 15.5312 13.9364 15.579 13.8515 15.664C13.7665 15.7489 13.7188 15.8642 13.7188 15.9844V16.8906C13.7188 18.6669 14.8534 20.1767 16.4375 20.7368V15.5312Z" fill="#1A183E"/>
</g>
<defs>
<clipPath id="clip0_4695_88466">
<rect width="29" height="29" fill="white" transform="translate(11 11)"/>
</clipPath>
</defs>
</svg>
