<svg width="50" height="50" viewBox="0 0 50 50" fill="none" xmlns="http://www.w3.org/2000/svg">
<circle cx="25" cy="25" r="25" fill="#D8E4FF"/>
<path d="M25.4974 36.5832C27.0845 36.5852 28.6564 36.2736 30.1227 35.6662C31.589 35.0589 32.9208 34.1677 34.0415 33.044C35.1653 31.9232 36.0564 30.5914 36.6638 29.1251C37.2712 27.6588 37.5828 26.087 37.5807 24.4998C37.5828 22.9127 37.2711 21.3409 36.6638 19.8746C36.0564 18.4083 35.1652 17.0765 34.0415 15.9557C32.9208 14.832 31.589 13.9408 30.1227 13.3334C28.6564 12.7261 27.0845 12.4145 25.4974 12.4165C23.9103 12.4145 22.3384 12.7261 20.8722 13.3335C19.4059 13.9409 18.0741 14.832 16.9533 15.9557C15.8296 17.0765 14.9384 18.4083 14.3311 19.8746C13.7237 21.3409 13.412 22.9127 13.4141 24.4998C13.412 26.087 13.7236 27.6588 14.331 29.1251C14.9384 30.5914 15.8295 31.9232 16.9533 33.044C18.0741 34.1677 19.4059 35.0588 20.8722 35.6662C22.3384 36.2736 23.9103 36.5852 25.4974 36.5832Z" stroke="black" stroke-width="2.5" stroke-linejoin="round"/>
<path d="M20.6641 24.5L24.2891 28.125L31.5391 20.875" stroke="black" stroke-width="2.5" stroke-linecap="round" stroke-linejoin="round"/>
</svg>
