<svg width="50" height="50" viewBox="0 0 50 50" fill="none" xmlns="http://www.w3.org/2000/svg">
<circle cx="25" cy="25" r="25" fill="#D8E4FF"/>
<g clip-path="url(#clip0_4695_88475)">
<path d="M26.1621 38.9748C27.545 38.8171 28.879 38.4401 29.807 37.3725C30.7205 36.3194 30.9942 34.8749 30.9942 33.2056C30.9942 32.3573 30.8365 31.1756 30.7096 30.2367L30.6824 30.0337H33.2598C34.3528 30.0337 35.3877 29.8778 36.2849 29.4283C37.2056 28.968 37.9347 28.1979 38.3439 27.2533C39.1668 25.4444 39.1378 22.8181 38.6846 19.4306L38.6121 18.8759C38.42 17.4459 38.2569 16.2061 38.0466 15.1911C37.8074 14.0493 37.4739 12.9998 36.8341 12.1606C35.4711 10.3717 33.1801 10.0962 30.0879 10.0962C26.7384 10.0962 24.2263 10.6979 22.1347 11.2779L21.2756 11.519C20.0829 11.8579 19.0988 12.1371 18.1472 12.2712C17.9376 11.638 17.5336 11.0869 16.9928 10.6964C16.452 10.306 15.8019 10.0959 15.1348 10.0962H13.3223C11.5714 10.0962 10.1504 11.5172 10.1504 13.2681V26.8618C10.1504 27.7031 10.4846 28.5098 11.0795 29.1047C11.6743 29.6995 12.4811 30.0337 13.3223 30.0337H15.1348C15.6906 30.0338 16.2366 29.8878 16.7182 29.6104C17.1998 29.333 17.6001 28.934 17.8789 28.4532C18.3484 28.6435 18.9483 28.9389 19.5446 29.3739C20.7608 30.2639 21.9317 31.703 21.9317 34.1118V35.0181C21.9317 37.1949 23.7333 39.2521 26.1621 38.9748ZM18.3067 14.9918C19.5863 14.8304 20.8261 14.477 22.0622 14.1236L22.8615 13.897C24.848 13.346 27.0937 12.8149 30.0879 12.8149C33.3396 12.8149 34.2204 13.2173 34.6718 13.8082C34.9382 14.158 35.1702 14.7235 35.3841 15.7476C35.5744 16.6574 35.7248 17.7848 35.9188 19.2457L35.9913 19.7894C36.4444 23.2006 36.3356 25.1055 35.8698 26.1278C35.7172 26.5059 35.4316 26.8153 35.0669 26.9978C34.6899 27.1863 34.1244 27.3149 33.2598 27.3149H30.0879C28.8464 27.3149 27.7408 28.3608 27.9039 29.7346C27.9438 30.0826 27.9927 30.4415 28.0398 30.7968C28.1594 31.6813 28.2754 32.5549 28.2754 33.2056C28.2754 34.6701 28.0144 35.2899 27.7534 35.5908C27.5051 35.8754 27.0266 36.14 25.8539 36.2741C25.2975 36.3376 24.6504 35.8446 24.6504 35.0181V34.1118C24.6504 30.6282 22.8778 28.4441 21.1487 27.179C20.2805 26.55 19.3224 26.0557 18.3067 25.7127V14.9918ZM15.1348 27.3131H13.3223C13.2021 27.3131 13.0869 27.2654 13.0019 27.1804C12.9169 27.0954 12.8692 26.9802 12.8692 26.86V13.2663C12.8692 13.1461 12.9169 13.0308 13.0019 12.9458C13.0869 12.8609 13.2021 12.8131 13.3223 12.8131H15.1348C15.255 12.8131 15.3703 12.8609 15.4552 12.9458C15.5402 13.0308 15.5879 13.1461 15.5879 13.2663V26.86C15.5879 27.1101 15.3849 27.3131 15.1348 27.3131Z" fill="black"/>
</g>
<defs>
<clipPath id="clip0_4695_88475">
<rect width="29" height="29" fill="white" transform="matrix(-1 0 0 1 39 10)"/>
</clipPath>
</defs>
</svg>
