<svg width="14" height="15" viewBox="0 0 14 15" fill="none" xmlns="http://www.w3.org/2000/svg">
<g id="fluent:hat-graduation-12-regular" clip-path="url(#clip0_4355_45433)">
<path id="Vector" d="M7.98078 3.05389C7.67446 2.90877 7.33973 2.8335 7.00078 2.8335C6.66182 2.8335 6.3271 2.90877 6.02078 3.05389L0.334444 5.74773C0.229785 5.7971 0.142176 5.87649 0.0827601 5.97579C0.0233444 6.07509 -0.0051932 6.18983 0.000777058 6.30539V9.83573C0.000777058 9.99044 0.0622352 10.1388 0.171631 10.2482C0.281028 10.3576 0.429401 10.4191 0.58411 10.4191C0.73882 10.4191 0.887193 10.3576 0.996589 10.2482C1.10599 10.1388 1.16744 9.99044 1.16744 9.83573V7.21539L2.33411 7.79406V11.0024C2.33413 11.0791 2.34928 11.1551 2.37871 11.226C2.40814 11.2968 2.45126 11.3612 2.50561 11.4154L2.53478 11.4434L2.60478 11.5076C2.97042 11.8334 3.36569 12.1244 3.78544 12.3767C4.56478 12.8457 5.69061 13.3357 7.00078 13.3357C8.31094 13.3357 9.43678 12.8457 10.2173 12.3767C10.637 12.1244 11.0323 11.8334 11.3979 11.5076L11.4679 11.4434L11.4948 11.4154H11.4971C11.5514 11.361 11.5944 11.2964 11.6236 11.2253C11.6528 11.1542 11.6677 11.0781 11.6674 11.0012V7.79289L13.6764 6.79656C13.7747 6.74792 13.8572 6.6726 13.9145 6.57924C13.9719 6.48587 14.0018 6.37822 14.0009 6.26863C13.9999 6.15905 13.9681 6.05195 13.909 5.95962C13.85 5.86728 13.7662 5.79344 13.6671 5.74656L7.98078 3.05389ZM8.01811 9.60473L10.5008 8.37273V10.7434C10.224 10.9781 9.92867 11.19 9.61761 11.3769C8.94094 11.7829 8.02394 12.1691 7.00078 12.1691C5.97761 12.1691 5.06178 11.7841 4.38394 11.3769C4.07289 11.19 3.77752 10.9781 3.50078 10.7434V8.37273L5.98344 9.60473C6.62511 9.92206 7.37644 9.92206 8.01811 9.60473ZM7.48144 4.10856L12.0804 6.28673L7.49894 8.55939C7.34408 8.6361 7.1736 8.67601 7.00078 8.67601C6.82796 8.67601 6.65747 8.6361 6.50261 8.55939L1.92111 6.28673L6.52011 4.10856C6.67035 4.03736 6.83452 4.00042 7.00078 4.00042C7.16703 4.00042 7.33121 4.03736 7.48144 4.10856Z" fill="#7A7A7A"/>
</g>
<defs>
<clipPath id="clip0_4355_45433">
<rect width="14" height="14" fill="white" transform="translate(0 0.5)"/>
</clipPath>
</defs>
</svg>
