<svg width="14" height="15" viewBox="0 0 14 15" fill="none" xmlns="http://www.w3.org/2000/svg">
<g id="fluent:people-team-24-regular">
<path id="Vector" d="M8.6039 6.33333C9.1674 6.33333 9.62473 6.79067 9.62473 7.35417V10.1244C9.62473 10.8208 9.34811 11.4886 8.85571 11.981C8.36332 12.4734 7.69549 12.75 6.99915 12.75C6.3028 12.75 5.63497 12.4734 5.14258 11.981C4.65019 11.4886 4.37356 10.8208 4.37356 10.1244V7.35417C4.37356 6.79067 4.83031 6.33333 5.3944 6.33333H8.6039ZM8.6039 7.20833H5.3944C5.35572 7.20833 5.31863 7.2237 5.29128 7.25105C5.26393 7.2784 5.24856 7.31549 5.24856 7.35417V10.1244C5.24856 10.5887 5.433 11.034 5.7613 11.3623C6.08959 11.6906 6.53486 11.875 6.99915 11.875C7.46343 11.875 7.9087 11.6906 8.237 11.3623C8.56529 11.034 8.74973 10.5887 8.74973 10.1244V7.35417C8.74973 7.31549 8.73436 7.2784 8.70702 7.25105C8.67967 7.2237 8.64257 7.20833 8.6039 7.20833ZM2.1849 6.33333H4.15715C3.95135 6.58188 3.82566 6.88695 3.79665 7.20833H2.1849C2.14622 7.20833 2.10913 7.2237 2.08178 7.25105C2.05443 7.2784 2.03906 7.31549 2.03906 7.35417V9.24942C2.03903 9.46985 2.08894 9.68742 2.18505 9.8858C2.28117 10.0842 2.42099 10.2582 2.59401 10.3948C2.76702 10.5314 2.96874 10.627 3.18401 10.6744C3.39928 10.7218 3.62249 10.7199 3.8369 10.6687C3.88648 10.9627 3.9769 11.2432 4.10115 11.504C3.75539 11.5965 3.393 11.6082 3.04198 11.5383C2.69097 11.4684 2.36074 11.3187 2.07683 11.1007C1.79292 10.8828 1.56294 10.6025 1.40467 10.2815C1.24639 9.96044 1.16407 9.60733 1.16406 9.24942V7.35417C1.16406 6.79067 1.6214 6.33333 2.1849 6.33333ZM9.84115 6.33333H11.8099C12.3734 6.33333 12.8307 6.79067 12.8307 7.35417V9.25C12.8308 9.60768 12.7487 9.96059 12.5906 10.2815C12.4326 10.6023 12.2029 10.8826 11.9193 11.1005C11.6357 11.3185 11.3058 11.4684 10.9551 11.5385C10.6043 11.6087 10.2422 11.5973 9.89656 11.5052C10.0214 11.2438 10.1118 10.9633 10.162 10.6693C10.3761 10.7199 10.5989 10.7214 10.8137 10.6736C11.0285 10.6259 11.2297 10.5302 11.4023 10.3937C11.5748 10.2571 11.7142 10.0833 11.8101 9.88527C11.9059 9.68721 11.9557 9.47003 11.9557 9.25V7.35417C11.9557 7.31549 11.9404 7.2784 11.913 7.25105C11.8857 7.2237 11.8486 7.20833 11.8099 7.20833H10.2016C10.1726 6.88695 10.0469 6.58188 9.84115 6.33333ZM6.9974 2.25C7.46152 2.25 7.90664 2.43437 8.23483 2.76256C8.56302 3.09075 8.7474 3.53587 8.7474 4C8.7474 4.46413 8.56302 4.90925 8.23483 5.23744C7.90664 5.56563 7.46152 5.75 6.9974 5.75C6.53327 5.75 6.08815 5.56563 5.75996 5.23744C5.43177 4.90925 5.2474 4.46413 5.2474 4C5.2474 3.53587 5.43177 3.09075 5.75996 2.76256C6.08815 2.43437 6.53327 2.25 6.9974 2.25ZM10.7891 2.83333C11.1758 2.83333 11.5468 2.98698 11.8203 3.26047C12.0938 3.53396 12.2474 3.90489 12.2474 4.29167C12.2474 4.67844 12.0938 5.04937 11.8203 5.32286C11.5468 5.59635 11.1758 5.75 10.7891 5.75C10.4023 5.75 10.0314 5.59635 9.75787 5.32286C9.48438 5.04937 9.33073 4.67844 9.33073 4.29167C9.33073 3.90489 9.48438 3.53396 9.75787 3.26047C10.0314 2.98698 10.4023 2.83333 10.7891 2.83333ZM3.20573 2.83333C3.5925 2.83333 3.96344 2.98698 4.23693 3.26047C4.51042 3.53396 4.66406 3.90489 4.66406 4.29167C4.66406 4.67844 4.51042 5.04937 4.23693 5.32286C3.96344 5.59635 3.5925 5.75 3.20573 5.75C2.81896 5.75 2.44802 5.59635 2.17453 5.32286C1.90104 5.04937 1.7474 4.67844 1.7474 4.29167C1.7474 3.90489 1.90104 3.53396 2.17453 3.26047C2.44802 2.98698 2.81896 2.83333 3.20573 2.83333ZM6.9974 3.125C6.76533 3.125 6.54277 3.21719 6.37868 3.38128C6.21458 3.54538 6.1224 3.76794 6.1224 4C6.1224 4.23206 6.21458 4.45462 6.37868 4.61872C6.54277 4.78281 6.76533 4.875 6.9974 4.875C7.22946 4.875 7.45202 4.78281 7.61611 4.61872C7.78021 4.45462 7.8724 4.23206 7.8724 4C7.8724 3.76794 7.78021 3.54538 7.61611 3.38128C7.45202 3.21719 7.22946 3.125 6.9974 3.125ZM10.7891 3.70833C10.6344 3.70833 10.486 3.76979 10.3766 3.87919C10.2672 3.98858 10.2057 4.13696 10.2057 4.29167C10.2057 4.44638 10.2672 4.59475 10.3766 4.70415C10.486 4.81354 10.6344 4.875 10.7891 4.875C10.9438 4.875 11.0921 4.81354 11.2015 4.70415C11.3109 4.59475 11.3724 4.44638 11.3724 4.29167C11.3724 4.13696 11.3109 3.98858 11.2015 3.87919C11.0921 3.76979 10.9438 3.70833 10.7891 3.70833ZM3.20573 3.70833C3.05102 3.70833 2.90265 3.76979 2.79325 3.87919C2.68385 3.98858 2.6224 4.13696 2.6224 4.29167C2.6224 4.44638 2.68385 4.59475 2.79325 4.70415C2.90265 4.81354 3.05102 4.875 3.20573 4.875C3.36044 4.875 3.50881 4.81354 3.61821 4.70415C3.7276 4.59475 3.78906 4.44638 3.78906 4.29167C3.78906 4.13696 3.7276 3.98858 3.61821 3.87919C3.50881 3.76979 3.36044 3.70833 3.20573 3.70833Z" fill="#7A7A7A"/>
</g>
</svg>
