<svg width="12" height="12" viewBox="0 0 12 12" fill="none" xmlns="http://www.w3.org/2000/svg">
<path d="M7.377 5C7.86 5 8.252 5.392 8.252 5.875V8.2495C8.252 8.84637 8.01489 9.41879 7.59284 9.84084C7.17079 10.2629 6.59837 10.5 6.0015 10.5C5.40463 10.5 4.83221 10.2629 4.41016 9.84084C3.98811 9.41879 3.751 8.84637 3.751 8.2495V5.875C3.751 5.392 4.1425 5 4.626 5H7.377ZM7.377 5.75H4.626C4.59285 5.75 4.56105 5.76317 4.53761 5.78661C4.51417 5.81005 4.501 5.84185 4.501 5.875V8.2495C4.501 8.64746 4.65909 9.02912 4.94049 9.31051C5.22188 9.59191 5.60354 9.75 6.0015 9.75C6.39946 9.75 6.78112 9.59191 7.06251 9.31051C7.34391 9.02912 7.502 8.64746 7.502 8.2495V5.875C7.502 5.84185 7.48883 5.81005 7.46539 5.78661C7.44195 5.76317 7.41015 5.75 7.377 5.75ZM1.875 5H3.5655C3.3891 5.21304 3.28137 5.47452 3.2565 5.75H1.875C1.84185 5.75 1.81005 5.76317 1.78661 5.78661C1.76317 5.81005 1.75 5.84185 1.75 5.875V7.4995C1.74997 7.68844 1.79275 7.87493 1.87514 8.04497C1.95752 8.215 2.07737 8.36416 2.22567 8.48123C2.37397 8.5983 2.54687 8.68025 2.73138 8.72091C2.9159 8.76157 3.10723 8.75989 3.291 8.716C3.3335 8.968 3.411 9.2085 3.5175 9.432C3.22114 9.51128 2.91052 9.52135 2.60965 9.46141C2.30878 9.40147 2.02572 9.27314 1.78237 9.08633C1.53902 8.89953 1.34189 8.65926 1.20623 8.38411C1.07057 8.10895 1.00001 7.80628 1 7.4995V5.875C1 5.392 1.392 5 1.875 5ZM8.4375 5H10.125C10.608 5 11 5.392 11 5.875V7.5C11.0001 7.80658 10.9297 8.10908 10.7942 8.38411C10.6587 8.65914 10.4619 8.89936 10.2188 9.08618C9.9757 9.27301 9.69292 9.40146 9.3923 9.46159C9.09167 9.52173 8.78124 9.51194 8.485 9.433C8.592 9.209 8.6695 8.9685 8.7125 8.7165C8.89604 8.75988 9.08702 8.76116 9.27113 8.72025C9.45524 8.67934 9.62771 8.59731 9.77561 8.48028C9.92351 8.36326 10.043 8.21428 10.1252 8.04452C10.2073 7.87475 10.25 7.6886 10.25 7.5V5.875C10.25 5.84185 10.2368 5.81005 10.2134 5.78661C10.1899 5.76317 10.1582 5.75 10.125 5.75H8.7465C8.72163 5.47452 8.6139 5.21304 8.4375 5ZM6 1.5C6.39782 1.5 6.77936 1.65804 7.06066 1.93934C7.34196 2.22064 7.5 2.60218 7.5 3C7.5 3.39782 7.34196 3.77936 7.06066 4.06066C6.77936 4.34196 6.39782 4.5 6 4.5C5.60218 4.5 5.22064 4.34196 4.93934 4.06066C4.65804 3.77936 4.5 3.39782 4.5 3C4.5 2.60218 4.65804 2.22064 4.93934 1.93934C5.22064 1.65804 5.60218 1.5 6 1.5ZM9.25 2C9.58152 2 9.89946 2.1317 10.1339 2.36612C10.3683 2.60054 10.5 2.91848 10.5 3.25C10.5 3.58152 10.3683 3.89946 10.1339 4.13388C9.89946 4.3683 9.58152 4.5 9.25 4.5C8.91848 4.5 8.60054 4.3683 8.36612 4.13388C8.1317 3.89946 8 3.58152 8 3.25C8 2.91848 8.1317 2.60054 8.36612 2.36612C8.60054 2.1317 8.91848 2 9.25 2ZM2.75 2C3.08152 2 3.39946 2.1317 3.63388 2.36612C3.8683 2.60054 4 2.91848 4 3.25C4 3.58152 3.8683 3.89946 3.63388 4.13388C3.39946 4.3683 3.08152 4.5 2.75 4.5C2.41848 4.5 2.10054 4.3683 1.86612 4.13388C1.6317 3.89946 1.5 3.58152 1.5 3.25C1.5 2.91848 1.6317 2.60054 1.86612 2.36612C2.10054 2.1317 2.41848 2 2.75 2ZM6 2.25C5.80109 2.25 5.61032 2.32902 5.46967 2.46967C5.32902 2.61032 5.25 2.80109 5.25 3C5.25 3.19891 5.32902 3.38968 5.46967 3.53033C5.61032 3.67098 5.80109 3.75 6 3.75C6.19891 3.75 6.38968 3.67098 6.53033 3.53033C6.67098 3.38968 6.75 3.19891 6.75 3C6.75 2.80109 6.67098 2.61032 6.53033 2.46967C6.38968 2.32902 6.19891 2.25 6 2.25ZM9.25 2.75C9.11739 2.75 8.99021 2.80268 8.89645 2.89645C8.80268 2.99021 8.75 3.11739 8.75 3.25C8.75 3.38261 8.80268 3.50979 8.89645 3.60355C8.99021 3.69732 9.11739 3.75 9.25 3.75C9.38261 3.75 9.50979 3.69732 9.60355 3.60355C9.69732 3.50979 9.75 3.38261 9.75 3.25C9.75 3.11739 9.69732 2.99021 9.60355 2.89645C9.50979 2.80268 9.38261 2.75 9.25 2.75ZM2.75 2.75C2.61739 2.75 2.49021 2.80268 2.39645 2.89645C2.30268 2.99021 2.25 3.11739 2.25 3.25C2.25 3.38261 2.30268 3.50979 2.39645 3.60355C2.49021 3.69732 2.61739 3.75 2.75 3.75C2.88261 3.75 3.00979 3.69732 3.10355 3.60355C3.19732 3.50979 3.25 3.38261 3.25 3.25C3.25 3.11739 3.19732 2.99021 3.10355 2.89645C3.00979 2.80268 2.88261 2.75 2.75 2.75Z" fill="#FF00F8"/>
</svg>
