<svg xmlns="http://www.w3.org/2000/svg" width="10" height="10" viewBox="0 0 10 10" fill="none">
<g clip-path="url(#clip0_3882_19440)">
<path d="M1.25 3.75V8.75H8.75V1.875H7.5V2.1875C7.5 2.27038 7.46708 2.34987 7.40847 2.40847C7.34987 2.46708 7.27038 2.5 7.1875 2.5C7.10462 2.5 7.02513 2.46708 6.96653 2.40847C6.90792 2.34987 6.875 2.27038 6.875 2.1875V1.875H3.125V2.1875C3.125 2.27038 3.09208 2.34987 3.03347 2.40847C2.97487 2.46708 2.89538 2.5 2.8125 2.5C2.72962 2.5 2.65013 2.46708 2.59153 2.40847C2.53292 2.34987 2.5 2.27038 2.5 2.1875V1.875H1.25V3.125H8.75V3.75H1.25ZM3.125 1.25H6.875V0.9375C6.875 0.85462 6.90792 0.775134 6.96653 0.716529C7.02513 0.657924 7.10462 0.625 7.1875 0.625C7.27038 0.625 7.34987 0.657924 7.40847 0.716529C7.46708 0.775134 7.5 0.85462 7.5 0.9375V1.25H9.0625C9.14538 1.25 9.22487 1.28292 9.28347 1.34153C9.34208 1.40013 9.375 1.47962 9.375 1.5625V9.0625C9.375 9.14538 9.34208 9.22487 9.28347 9.28347C9.22487 9.34208 9.14538 9.375 9.0625 9.375H0.9375C0.85462 9.375 0.775134 9.34208 0.716529 9.28347C0.657924 9.22487 0.625 9.14538 0.625 9.0625V1.5625C0.625 1.47962 0.657924 1.40013 0.716529 1.34153C0.775134 1.28292 0.85462 1.25 0.9375 1.25H2.5V0.9375C2.5 0.85462 2.53292 0.775134 2.59153 0.716529C2.65013 0.657924 2.72962 0.625 2.8125 0.625C2.89538 0.625 2.97487 0.657924 3.03347 0.716529C3.09208 0.775134 3.125 0.85462 3.125 0.9375V1.25ZM2.8125 5H3.4375C3.52038 5 3.59987 5.03292 3.65847 5.09153C3.71708 5.15013 3.75 5.22962 3.75 5.3125C3.75 5.39538 3.71708 5.47487 3.65847 5.53347C3.59987 5.59208 3.52038 5.625 3.4375 5.625H2.8125C2.72962 5.625 2.65013 5.59208 2.59153 5.53347C2.53292 5.47487 2.5 5.39538 2.5 5.3125C2.5 5.22962 2.53292 5.15013 2.59153 5.09153C2.65013 5.03292 2.72962 5 2.8125 5ZM2.8125 6.875H3.4375C3.52038 6.875 3.59987 6.90792 3.65847 6.96653C3.71708 7.02513 3.75 7.10462 3.75 7.1875C3.75 7.27038 3.71708 7.34987 3.65847 7.40847C3.59987 7.46708 3.52038 7.5 3.4375 7.5H2.8125C2.72962 7.5 2.65013 7.46708 2.59153 7.40847C2.53292 7.34987 2.5 7.27038 2.5 7.1875C2.5 7.10462 2.53292 7.02513 2.59153 6.96653C2.65013 6.90792 2.72962 6.875 2.8125 6.875ZM4.6875 5H5.3125C5.39538 5 5.47487 5.03292 5.53347 5.09153C5.59208 5.15013 5.625 5.22962 5.625 5.3125C5.625 5.39538 5.59208 5.47487 5.53347 5.53347C5.47487 5.59208 5.39538 5.625 5.3125 5.625H4.6875C4.60462 5.625 4.52513 5.59208 4.46653 5.53347C4.40792 5.47487 4.375 5.39538 4.375 5.3125C4.375 5.22962 4.40792 5.15013 4.46653 5.09153C4.52513 5.03292 4.60462 5 4.6875 5ZM4.6875 6.875H5.3125C5.39538 6.875 5.47487 6.90792 5.53347 6.96653C5.59208 7.02513 5.625 7.10462 5.625 7.1875C5.625 7.27038 5.59208 7.34987 5.53347 7.40847C5.47487 7.46708 5.39538 7.5 5.3125 7.5H4.6875C4.60462 7.5 4.52513 7.46708 4.46653 7.40847C4.40792 7.34987 4.375 7.27038 4.375 7.1875C4.375 7.10462 4.40792 7.02513 4.46653 6.96653C4.52513 6.90792 4.60462 6.875 4.6875 6.875ZM6.5625 5H7.1875C7.27038 5 7.34987 5.03292 7.40847 5.09153C7.46708 5.15013 7.5 5.22962 7.5 5.3125C7.5 5.39538 7.46708 5.47487 7.40847 5.53347C7.34987 5.59208 7.27038 5.625 7.1875 5.625H6.5625C6.47962 5.625 6.40013 5.59208 6.34153 5.53347C6.28292 5.47487 6.25 5.39538 6.25 5.3125C6.25 5.22962 6.28292 5.15013 6.34153 5.09153C6.40013 5.03292 6.47962 5 6.5625 5ZM6.5625 6.875H7.1875C7.27038 6.875 7.34987 6.90792 7.40847 6.96653C7.46708 7.02513 7.5 7.10462 7.5 7.1875C7.5 7.27038 7.46708 7.34987 7.40847 7.40847C7.34987 7.46708 7.27038 7.5 7.1875 7.5H6.5625C6.47962 7.5 6.40013 7.46708 6.34153 7.40847C6.28292 7.34987 6.25 7.27038 6.25 7.1875C6.25 7.10462 6.28292 7.02513 6.34153 6.96653C6.40013 6.90792 6.47962 6.875 6.5625 6.875Z" fill="#FF00F8"/>
</g>
<defs>
<clipPath id="clip0_3882_19440">
<rect width="10" height="10" fill="white"/>
</clipPath>
</defs>
</svg>