<svg xmlns="http://www.w3.org/2000/svg" width="10" height="10" viewBox="0 0 10 10" fill="none">
<path d="M7.5 8.98454H2.5C2.33429 8.98438 2.17542 8.92122 2.05824 8.80893C1.94107 8.69664 1.87517 8.54438 1.875 8.38558V1.19808C1.87517 1.03927 1.94107 0.887019 2.05824 0.774727C2.17542 0.662435 2.33429 0.59928 2.5 0.599121H7.5C7.66571 0.59928 7.82458 0.662435 7.94176 0.774727C8.05893 0.887019 8.12483 1.03927 8.125 1.19808V6.17482L6.5625 5.42613L5 6.17482V1.19808H2.5V8.38558H7.5V7.18766H8.125V8.38558C8.12475 8.54436 8.05882 8.69657 7.94167 8.80884C7.82451 8.92112 7.66568 8.9843 7.5 8.98454ZM6.5625 4.75649L7.5 5.20571V1.19808H5.625V5.20571L6.5625 4.75649Z" fill="#FF00F8"/>
</svg>