<svg xmlns="http://www.w3.org/2000/svg" width="10" height="10" viewBox="0 0 10 10" fill="none">
<path d="M6.377 4C6.86 4 7.252 4.392 7.252 4.875V7.2495C7.252 7.84637 7.01489 8.41879 6.59284 8.84084C6.17079 9.26289 5.59837 9.5 5.0015 9.5C4.40463 9.5 3.83221 9.26289 3.41016 8.84084C2.98811 8.41879 2.751 7.84637 2.751 7.2495V4.875C2.751 4.392 3.1425 4 3.626 4H6.377ZM6.377 4.75H3.626C3.59285 4.75 3.56105 4.76317 3.53761 4.78661C3.51417 4.81005 3.501 4.84185 3.501 4.875V7.2495C3.501 7.64746 3.65909 8.02912 3.94049 8.31051C4.22188 8.59191 4.60354 8.75 5.0015 8.75C5.39946 8.75 5.78112 8.59191 6.06251 8.31051C6.34391 8.02912 6.502 7.64746 6.502 7.2495V4.875C6.502 4.84185 6.48883 4.81005 6.46539 4.78661C6.44195 4.76317 6.41015 4.75 6.377 4.75ZM0.875 4H2.5655C2.3891 4.21304 2.28137 4.47452 2.2565 4.75H0.875C0.841848 4.75 0.810054 4.76317 0.786612 4.78661C0.76317 4.81005 0.75 4.84185 0.75 4.875V6.4995C0.749968 6.68844 0.792752 6.87493 0.875136 7.04497C0.957521 7.215 1.07737 7.36416 1.22567 7.48123C1.37397 7.5983 1.54687 7.68025 1.73138 7.72091C1.9159 7.76157 2.10723 7.75989 2.291 7.716C2.3335 7.968 2.411 8.2085 2.5175 8.432C2.22114 8.51128 1.91052 8.52135 1.60965 8.46141C1.30878 8.40147 1.02572 8.27314 0.782374 8.08633C0.539023 7.89953 0.341894 7.65926 0.206232 7.38411C0.0705688 7.10895 6.14989e-06 6.80628 0 6.4995V4.875C0 4.392 0.392 4 0.875 4ZM7.4375 4H9.125C9.608 4 10 4.392 10 4.875V6.5C10.0001 6.80658 9.92965 7.10908 9.79419 7.38411C9.65874 7.65914 9.46186 7.89936 9.21878 8.08618C8.9757 8.27301 8.69292 8.40146 8.3923 8.46159C8.09167 8.52173 7.78124 8.51194 7.485 8.433C7.592 8.209 7.6695 7.9685 7.7125 7.7165C7.89604 7.75988 8.08702 7.76116 8.27113 7.72025C8.45524 7.67934 8.62771 7.59731 8.77561 7.48028C8.92351 7.36326 9.04302 7.21428 9.12517 7.04452C9.20733 6.87475 9.25 6.6886 9.25 6.5V4.875C9.25 4.84185 9.23683 4.81005 9.21339 4.78661C9.18995 4.76317 9.15815 4.75 9.125 4.75H7.7465C7.72163 4.47452 7.6139 4.21304 7.4375 4ZM5 0.5C5.39782 0.5 5.77936 0.658035 6.06066 0.93934C6.34196 1.22064 6.5 1.60218 6.5 2C6.5 2.39782 6.34196 2.77936 6.06066 3.06066C5.77936 3.34196 5.39782 3.5 5 3.5C4.60218 3.5 4.22064 3.34196 3.93934 3.06066C3.65804 2.77936 3.5 2.39782 3.5 2C3.5 1.60218 3.65804 1.22064 3.93934 0.93934C4.22064 0.658035 4.60218 0.5 5 0.5ZM8.25 1C8.58152 1 8.89946 1.1317 9.13388 1.36612C9.3683 1.60054 9.5 1.91848 9.5 2.25C9.5 2.58152 9.3683 2.89946 9.13388 3.13388C8.89946 3.3683 8.58152 3.5 8.25 3.5C7.91848 3.5 7.60054 3.3683 7.36612 3.13388C7.1317 2.89946 7 2.58152 7 2.25C7 1.91848 7.1317 1.60054 7.36612 1.36612C7.60054 1.1317 7.91848 1 8.25 1ZM1.75 1C2.08152 1 2.39946 1.1317 2.63388 1.36612C2.8683 1.60054 3 1.91848 3 2.25C3 2.58152 2.8683 2.89946 2.63388 3.13388C2.39946 3.3683 2.08152 3.5 1.75 3.5C1.41848 3.5 1.10054 3.3683 0.866117 3.13388C0.631696 2.89946 0.5 2.58152 0.5 2.25C0.5 1.91848 0.631696 1.60054 0.866117 1.36612C1.10054 1.1317 1.41848 1 1.75 1ZM5 1.25C4.80109 1.25 4.61032 1.32902 4.46967 1.46967C4.32902 1.61032 4.25 1.80109 4.25 2C4.25 2.19891 4.32902 2.38968 4.46967 2.53033C4.61032 2.67098 4.80109 2.75 5 2.75C5.19891 2.75 5.38968 2.67098 5.53033 2.53033C5.67098 2.38968 5.75 2.19891 5.75 2C5.75 1.80109 5.67098 1.61032 5.53033 1.46967C5.38968 1.32902 5.19891 1.25 5 1.25ZM8.25 1.75C8.11739 1.75 7.99021 1.80268 7.89645 1.89645C7.80268 1.99021 7.75 2.11739 7.75 2.25C7.75 2.38261 7.80268 2.50979 7.89645 2.60355C7.99021 2.69732 8.11739 2.75 8.25 2.75C8.38261 2.75 8.50979 2.69732 8.60355 2.60355C8.69732 2.50979 8.75 2.38261 8.75 2.25C8.75 2.11739 8.69732 1.99021 8.60355 1.89645C8.50979 1.80268 8.38261 1.75 8.25 1.75ZM1.75 1.75C1.61739 1.75 1.49021 1.80268 1.39645 1.89645C1.30268 1.99021 1.25 2.11739 1.25 2.25C1.25 2.38261 1.30268 2.50979 1.39645 2.60355C1.49021 2.69732 1.61739 2.75 1.75 2.75C1.88261 2.75 2.00979 2.69732 2.10355 2.60355C2.19732 2.50979 2.25 2.38261 2.25 2.25C2.25 2.11739 2.19732 1.99021 2.10355 1.89645C2.00979 1.80268 1.88261 1.75 1.75 1.75Z" fill="#FF00F8"/>
</svg>